<?xml version="1.0" encoding="utf-8"?>
<!-- Svg Vector Icons : http://www.onlinewebfonts.com/icon -->
<!DOCTYPE svg PUBLIC "-//W3C//DTD SVG 1.1//EN" "http://www.w3.org/Graphics/SVG/1.1/DTD/svg11.dtd">
<svg version="1.1" xmlns="http://www.w3.org/2000/svg" xmlns:xlink="http://www.w3.org/1999/xlink" x="0px" y="0px" viewBox="0 0 1000 1000" enable-background="new 0 0 1000 1000" xml:space="preserve">
<metadata> Svg Vector Icons : http://www.onlinewebfonts.com/icon </metadata>
<g><path d="M948.7,946.5C940.3,821.3,878.5,704.9,779,627l-6-4.1l-0.1,0.1c-5.7-3.5-12.1-5.3-18.7-5.3c-22.8,0-36.4,11-36.4,29.4c0,10.7,5,20.8,13.3,27.6l-0.1,0.2l5.3,3.8c83.4,59.6,130.4,150.1,139.6,268.9l0.1,1.3c-0.1,1-0.1,2-0.1,3c0,20.1,16.3,36.3,36.3,36.3c19.4,0,35.2-15.2,36.3-34.3h0.7L948.7,946.5z M831.6,337.7C831.6,157,682.9,10,500,10c-182.9,0-331.7,147-331.7,327.7c0,97.4,43,188.2,118.5,250.8C151.4,660.8,61.5,798.7,51.3,950.9l-0.4,6.3c0,0.1,0,0.3,0,0.4l0,0.6h0c0,0.3,0,0.6,0,0.9c0,17,13.8,30.8,30.8,30.8c17,0,30.8-13.8,30.8-30.8c0-0.3,0-0.6,0-0.9h0.6l0.5-6.3c11.2-144.7,102.9-271.4,233.9-323.6c39.1,18.2,98.9,37.1,152.5,37.1c49.6,0,97.9-10.9,143.8-32.8l33.6-19.5l27.5-18C785.4,532.4,831.6,438.6,831.6,337.7z M500,599.5c-146.1,0-265-117.4-265-261.8C235,193.4,353.9,76,500,76c146.1,0,265,117.4,265,261.7C765,482,646.1,599.5,500,599.5z"/></g>
</svg>